<mxfile host="app.diagrams.net" modified="2024-03-22T03:13:45.525Z" agent="Mozilla/5.0 (Macintosh; Intel Mac OS X 10_15_7) AppleWebKit/537.36 (KHTML, like Gecko) Chrome/121.0.0.0 Safari/537.36 OPR/107.0.0.0" version="24.0.5" etag="Yr8yczxU05ktKCJHymAp" type="github">
  <diagram name="Page-1" id="_FDsfebHAR4L8mllNxtW">
    <mxGraphModel>
      <root>
        <mxCell id="0" />
        <mxCell id="1" parent="0" />
      </root>
    </mxGraphModel>
  </diagram>
</mxfile>
